<?xml version="1.0" encoding="utf-8"?>
<!-- Generator: Adobe Illustrator 15.1.0, SVG Export Plug-In . SVG Version: 6.00 Build 0)  -->
<!DOCTYPE svg PUBLIC "-//W3C//DTD SVG 1.1//EN" "http://www.w3.org/Graphics/SVG/1.1/DTD/svg11.dtd">
<svg version="1.1" id="Layer_1" xmlns="http://www.w3.org/2000/svg" xmlns:xlink="http://www.w3.org/1999/xlink" x="0px" y="0px"
	 width="53.62px" height="41.962px" viewBox="0 0 53.62 41.962" enable-background="new 0 0 53.62 41.962" xml:space="preserve">
<path fill="#F8F7F1" d="M53.619,0c-5.776,0.065-11.063,1.62-15.815,4.032c-1.179-1.146-2.781-1.856-4.543-1.856H6.528
	C2.938,2.176,0,5.113,0,8.704v26.73c0,3.59,2.938,6.527,6.528,6.527H33.26c3.59,0,6.526-2.938,6.526-6.527V14.139
	c8.045-0.403,2.953-4.348,2.953-4.348c11.19-1.554,4.818-4.507,4.818-4.507C53.774,4.041,53.619,0,53.619,0 M4.974,36.989V7.148
	h27.602C17.932,17.214,9.636,34.346,9.636,34.346l6.994-2.329c1.71-4.975,8.392-10.102,16.474-11.035
	c0.649-0.075,1.212-0.186,1.709-0.318v16.326H4.974z"/>
</svg>
